<svg width="256" height="256" viewBox="0 0 48 48" fill="none" xmlns="http://www.w3.org/2000/svg">
    <defs>
        <linearGradient id="leaf-growth" x1="16" y1="16" x2="32" y2="34" gradientUnits="userSpaceOnUse">
            <stop offset="0" stop-color="#CFEBC6" />
            <stop offset="0.65" stop-color="#A9D9A3" />
            <stop offset="1" stop-color="#79B77A" />
        </linearGradient>
    </defs>
    <path d="M6 42 C 12 39, 19 38, 24 38 C 29 38, 36 39, 42 42 C 36 44, 30 45, 24 45 C 18 45, 12 44, 6 42 Z" fill="#2F3741" opacity="0.9" />
    <path d="M10 41 C 14 39.6, 18.8 39.2, 24 39.2 C 29 39.2, 33.8 39.6, 38 41 C 33.3 41.8, 28.7 42.2, 24 42.2 C 19.3 42.2, 14.7 41.8, 10 41 Z" fill="#6B7C8A" opacity="0.35" />
    <path d="M24 41 V 24" stroke="#2F3A45" stroke-width="1.6" stroke-linecap="round" />
    <path d="M24 27 C 19.8 26, 15.8 23.3, 14.2 20.2 C 12.7 17.2, 15.3 15.5, 18.2 16.5 C 21.1 17.6, 23.2 20.6, 24.1 23.1 C 24.7 24.8, 24.8 26, 24 27 Z" fill="url(#leaf-growth)" stroke="#2F3A45" stroke-width="1.4" stroke-linejoin="round" />
    <path d="M24 27 C 28.2 26, 32.2 23.3, 33.8 20.2 C 35.3 17.2, 32.7 15.5, 29.8 16.5 C 26.9 17.6, 24.8 20.6, 23.9 23.1 C 23.3 24.8, 23.2 26, 24 27 Z" fill="url(#leaf-growth)" stroke="#2F3A45" stroke-width="1.4" stroke-linejoin="round" />
    <path d="M20.2 21.3 C 21.5 21.8, 22.6 22.7, 23.2 24" stroke="#2F3A45" stroke-opacity="0.26" stroke-width="1" stroke-linecap="round" />
    <path d="M27.8 21.3 C 26.5 21.8, 25.4 22.7, 24.8 24" stroke="#2F3A45" stroke-opacity="0.26" stroke-width="1" stroke-linecap="round" />
</svg>